<svg xmlns="http://www.w3.org/2000/svg" viewBox="0 0 156 147" id="empty-basket"><g fill-rule="nonzero" fill="none"><path d="M109.606 137.021c-21.414-1.443-42.827-2.597-64.01 1.443-1.846.347-1.846 3.406 0 3.752 27.705 4.502 55.93 4.733 83.691.577 2.54-.346 2.54-4.675 0-5.08-29.667-4.847-59.91-4.963-89.693-.403-2.886.462-2.886 5.425 0 5.83 25.511 4.04 51.196 4.559 76.534-.693 2.885-.577 3.059-5.541 0-6.003-22.106-3.174-44.212-3.347-66.202.577-3.002.577-2.31 5.657.75 5.31 21.24-2.482 42.595-2.828 63.835.116v-6.003c-24.183 5.08-48.944 4.618-73.3.808v5.83c28.743-4.33 57.89-4.502 86.633-.347v-5.137c-26.896 4.214-54.254 4.502-81.266.75v3.752c20.72-4.617 41.845-3.924 62.97-3.116 1.443.173 1.385-1.905.058-1.963z" fill="#F9F5EF"></path><path d="M45.712 33.188c0 2.308.577 4.502.981 6.752.404 2.367.578 4.791.693 7.157.173 4.733-.115 9.408-.346 14.141-.231 4.964-.635 9.812-.981 14.776-.174 2.655-.347 5.31-.578 7.965-.173 2.655-.635 5.368-.173 7.965.577 3.232 5.195 2.77 6.06 0 .75-2.482.578-5.425.75-7.965l.52-8.311c.347-5.195.693-10.274.866-15.469.173-4.79-.23-9.696-.981-14.429-.75-4.444-1.732-9.87-4.848-13.333-.75-.75-1.963-.115-1.963.75z" fill="#C3A080"></path><path d="M43.577 32.726c.692 15.988 1.904 32.09.23 48.02-.23 2.252 3.637 2.771 3.983.578 1.27-9.004 1.79-18.008 1.443-27.07-.173-4.444-.577-8.888-1.097-13.275-.288-2.077-.346-4.328-.923-6.29-.346-1.386-1.097-2.367-2.482-2.771-.115 1.096-.346 2.193-.462 3.29 1.212.057 2.309-.058 3.463-.404-.692-.578-1.443-1.097-2.077-1.616.23 1.904.404 3.867.808 5.771.346 1.732 3.174 1.328 3.059-.404-.058-1.789-.347-3.578-.578-5.367-.115-1.04-.98-1.905-2.077-1.617-.866.231-1.674.347-2.54.29-1.962-.116-2.193 2.77-.462 3.289.52.173.635 4.386.693 5.137.173 1.847.346 3.636.462 5.425.288 3.867.404 7.85.346 11.717a197.08 197.08 0 01-1.558 23.375h4.04c1.5-16.218-.231-32.206-2.597-48.251-.116-.982-1.674-.75-1.674.173z" fill="#C3A080"></path><path d="M48.656 34.92c.115-.636.173-1.27.346-1.963.058-.347.116-.635.116-.982.057-.346.173-.634.23-.98-.461.115-.98.288-1.442.346.577 1.212.692 2.54.577 3.867-.116 1.154-.577 2.655-1.04 3.636-.346.577-.115 1.443.463 1.731.577.347 1.442.116 1.731-.461.808-1.559 1.212-3.175 1.097-4.906-.116-1.674-.578-3.233-1.501-4.675-.346-.578-1.443-.404-1.443.346 0 .346.116.635.173.981.058.346.058.577.116.924.057.634.115 1.27.115 1.904.058.404.404.462.462.231zM46.463 90.443c.173 4.098-1.04 8.138-3.175 11.66.981.403 2.078.865 3.06 1.269.403-2.02.75-4.098.98-6.118.173-2.02.347-3.983.347-6.003H44.5c0 2.77-.173 5.599-.346 8.37-.058.75.635 1.5 1.443 1.615.808.116 1.5-.346 1.79-1.154.519-1.616 1.327-3.059 2.308-4.444-.981-.577-2.02-1.212-3.002-1.732-.346.693-.634 1.443-.923 2.136-.289.75.289 1.674.981 2.02.75.346 1.674.058 2.078-.693.346-.577.577-1.096.808-1.673.346-.866.289-1.847-.635-2.367-.866-.52-1.847-.115-2.366.635-1.097 1.616-1.905 3.405-2.482 5.31 1.039.116 2.135.289 3.174.404.058-2.77.058-5.599.231-8.369.058-.866-.75-1.558-1.558-1.558-.924 0-1.5.75-1.559 1.558a90.761 90.761 0 01-.692 5.54c-.289 1.906-.462 3.868-.75 5.715-.116.808.115 1.674.98 1.962.751.347 1.675.058 2.079-.692 1.212-2.078 1.904-4.33 2.25-6.695.347-2.31.231-4.618-.23-6.869-.116-1.039-1.674-.808-1.616.173z" fill="#C3A080"></path><path d="M50.618 33.188c0 3.174.75 6.348 1.097 9.465.346 3.175.577 6.465.635 9.639.173 6.522-.116 13.102-.404 19.624-.231 5.83-.981 11.774-.347 17.546.52 4.964 2.194 9.581 6.523 12.467 1.673 1.154 4.097-.346 4.04-2.309-.404-22.336-1.443-44.615-2.655-66.952-.116-1.385-1.155-2.655-2.598-2.597-2.077.115-3.982.577-5.829 1.5-1.443.693-1.732 3.002-.52 4.04 1.155.982 1.847 2.252 2.02 3.81.347 3.001 4.272 3.001 4.618 0 .346-2.828-.981-5.54-3.001-7.388a751.398 751.398 0 00-.52 4.04c1.04-.519 2.078-.75 3.29-.75l-2.597-2.597c.866 22.336 1.962 44.615 2.482 66.952 1.327-.75 2.712-1.558 4.04-2.309-3.694-2.424-4.098-7.56-4.156-11.6-.057-5.83.404-11.775.577-17.605.116-6.06-.115-12.063-.808-18.065-.692-5.599-1.385-12.41-4.502-17.258-.461-.52-1.385-.346-1.385.347zM44.616 106.662a93.33 93.33 0 013.059-4.675c1.039-1.559 2.25-3.002 3.52-4.329-.577-.058-1.039-.115-1.616-.173a43.839 43.839 0 006.118 9.061c.462-.75.924-1.558 1.386-2.366-4.445-.577-8.889-.981-13.333-.981-1.616 0-2.54 2.078-1.328 3.232 2.078 1.905 4.733 1.154 6.926.115 2.31-1.038 4.156-3 3.637-5.714-.231-1.27-1.212-2.308-2.424-2.77-1.386-.462-2.77.115-3.752.981-1.847 1.674-3.579 6.06-.173 7.157 2.828.924 5.887-1.443 6.637-4.098-1.327-.346-2.597-.75-3.925-1.096-.461 1.731.174 3.636 1.674 4.675 1.385.98 3.463.98 4.79 0 .867-.635 1.386-1.79.751-2.77-.577-.809-1.847-1.444-2.77-.751-.116.058-.116.115-.231.173-.116.116-.116.116.058 0-.058 0-.116.058-.174.058h.116c-.173 0-.404-.058-.116 0-.173-.058-.23-.116-.115 0 .115.058.115.058-.115-.116.23.347-.058-.115.115.058.115.173-.115-.288.058.116-.058-.116-.058-.578-.058-.116 0-.462-.115.346 0-.115.289-.982-.346-2.251-1.443-2.54-1.039-.23-2.193.346-2.54 1.443-.057.115-.173.52-.057.173-.058.058-.347.577-.231.404.115-.173-.231.231-.289.289l-.173.173c.173-.115.116-.115-.058 0-.115.058-.577.289-.173.115-.173.058-.346.116-.52.116.52-.173-.23.058-.172 0 .288 0 .461.115.577.462a.601.601 0 01.404.577c-.058.23 0 .23.058 0 0-.058.057-.116.057-.173-.115.346.058-.116.116-.174.115-.173.173-.346.288-.519.058-.115.116-.23.231-.346-.115.115-.115.115-.058.057.058-.057.404-.404.231-.288-.115.115-.115.058.058-.058.173-.115.173-.115-.058 0 .347 0-.173 0-.288-.058.057 0 .115.058.173.058-.116-.058-.289-.115-.404-.23.346.288-.289-.347 0 .057-.231-.289-.116-.173-.058.115-.115-.52-.058-.115-.058.116 0-.52 0-.116-.057.058.173-.578-.173.173-.058.057l-.289.289c-.115.115-.115.115.058 0-.115.058-.115.115-.23.115-.174.116-.347.231-.578.347l-1.039.519c.346-.173-.173.115-.23.115-.174.058-.347.116-.578.174a1.708 1.708 0 01-.577.115c-.404.115.23.058-.173.058h-.347c.231.057.231.057.116 0-.116-.058-.116-.058.058.057-.174-.115-.174-.115-.058 0-.462 1.097-.924 2.136-1.328 3.233 4.33-.347 8.658-.347 12.93-.116 1.211.116 1.846-1.616.98-2.424-2.482-2.424-4.617-5.08-6.349-8.08-.346-.52-1.154-.75-1.616-.174a56.28 56.28 0 00-3.405 4.849 23.544 23.544 0 00-2.309 5.367c.116.174.577.347.75.116z" fill="#C3A080"></path><path d="M62.22 62.97c4.732 1.154 9.811 1.212 14.66 1.385 5.021.23 10.043.289 15.122.346 4.906 0 9.812-.057 14.66-.115 2.54-.058 5.021-.116 7.56-.231 2.54-.115 5.253 0 7.793-.635 2.828-.693 1.847-4.329-.635-4.675-2.482-.346-5.08.115-7.561.23-2.367.116-4.733.232-7.157.347-5.022.231-10.043.346-15.122.404-4.906.116-9.812.116-14.66.116-4.849 0-9.812-.289-14.66.461-1.27.174-1.155 2.136 0 2.367z" fill="#C3A080"></path><path d="M39.594 114.57c27.705 3.405 56.506 1.904 84.383 1.211 4.675-.115 4.733-7.388 0-7.272-28.108.808-56.39-.808-84.383.75-3.52.116-3.405 4.906 0 5.31z" fill="#C1D6D1"></path><path d="M43.346 30.818c2.135 1.714 6.118 1.31 8.83 1.412 3.175.1 6.407.201 9.582.252 6.81.05 13.621.05 20.432.1 13.506.05 27.011.101 40.46-.252 3.232-.1 3.29-4.334 0-4.435-13.506-.302-27.012-.302-40.46-.252-6.696.05-13.333.05-20.028.1-3.348 0-6.695.102-10.043.253-2.713.1-6.695-.303-8.83 1.411-.347.303-.347 1.008.057 1.411z" fill="#3B3B3C"></path><path d="M121.438 30.648c2.135.75 2.077 3.174 1.962 5.137-.115 3.405-.404 6.868-.577 10.274-.346 6.868-.289 13.736-.231 20.605a611.477 611.477 0 001.731 41.152c.289 3.636 5.945 3.636 5.6 0-1.328-15.295-2.194-30.59-2.54-45.885a1524.32 1524.32 0 01-.347-22.972c-.058-2.597.116-5.252-1.039-7.676-.808-1.732-2.54-3.405-4.56-2.54-.98.289-1.038 1.559 0 1.905zM57.198 30.648c2.136.75 2.078 3.174 1.962 5.137-.115 3.405-.404 6.868-.577 10.274-.346 6.868-.288 13.736-.23 20.605a611.477 611.477 0 001.73 41.152c.29 3.636 5.946 3.636 5.6 0-1.328-15.295-2.194-30.59-2.54-45.885-.173-7.619-.289-15.353-.346-22.972-.058-2.597.115-5.252-1.04-7.676-.807-1.732-2.539-3.405-4.559-2.54-.981.289-1.039 1.559 0 1.905zM47.097 28.686c-2.02-.808-3.693.865-4.56 2.54-1.154 2.423-.98 5.078-1.038 7.676-.116 7.618-.173 15.352-.346 22.971-.404 15.353-1.213 30.648-2.54 45.886-.346 3.636 5.368 3.636 5.599 0 .98-13.68 1.673-27.416 1.731-41.153.058-6.868.058-13.737-.23-20.605-.116-3.405-.405-6.869-.578-10.274-.115-1.905-.173-4.329 1.962-5.137.982-.288.924-1.558 0-1.904z" fill="#3B3B3C"></path><path d="M40.518 109.952c2.424 1.904 6.29 1.5 9.234 1.616 3.637.115 7.215.288 10.794.288 7.56.058 15.064.058 22.625.116 14.66.058 29.32.115 43.98-.289 3.233-.115 3.29-4.963 0-5.079-14.66-.346-29.262-.346-43.98-.288-7.561.057-15.064.057-22.625.115-3.637 0-7.215.115-10.794.289-2.943.115-6.81-.347-9.234 1.616-.462.288-.462 1.27 0 1.616zM49.118 30.763c.634 10.505 1.212 21.067 1.212 31.687-.058 10.563-.578 21.125-.982 31.687-.115 2.886 4.33 2.886 4.445 0 .865-21.124-.116-42.307-2.136-63.374-.115-1.616-2.597-1.673-2.54 0z" fill="#3B3B3C"></path><path d="M42.71 108.22c1.617-2.078 3.175-4.098 4.791-6.118.75-.981 1.443-1.962 2.194-3.001.404-.577.808-1.097 1.212-1.674.23-.346.52-.981.923-1.039-.52-.115-.98-.288-1.5-.404a116.185 116.185 0 014.675 5.887c.75.982 1.443 1.963 2.193 3.002.75 1.039 1.443 2.308 2.366 3.232 1.674 1.674 4.214-.404 3.175-2.424-.577-1.155-1.674-2.194-2.482-3.175-.808-.98-1.674-2.02-2.54-3.001a161.571 161.571 0 00-5.194-5.772c-.346-.346-.981-.577-1.5-.404-1.386.462-2.02 1.616-2.771 2.77a126.92 126.92 0 01-2.309 3.637c-1.558 2.482-3.001 5.021-4.502 7.56-.346.751.75 1.617 1.27.924z" fill="#3B3B3C"></path><g fill="#3B3B3C"><path d="M78.034 15.064c0-8.08 6.522-14.66 14.66-14.66 8.08 0 14.66 6.522 14.66 14.66a1.675 1.675 0 01-3.347 0c0-6.29-5.137-11.37-11.37-11.37-6.292 0-11.37 5.137-11.37 11.37 0 .924-.751 1.674-1.675 1.674a1.654 1.654 0 01-1.558-1.674z"></path><path d="M105.623 17.084a2.045 2.045 0 01-2.02-2.02c0-6.06-4.964-10.966-10.966-10.966-6.06 0-10.967 4.964-10.967 10.966 0 1.097-.923 2.02-2.02 2.02a2.045 2.045 0 01-2.02-2.02C77.63 6.811 84.383.058 92.694.058c8.312 0 14.95 6.753 14.95 15.006 0 1.155-.924 2.02-2.021 2.02zM92.637 3.29a11.75 11.75 0 0111.774 11.774 1.22 1.22 0 001.212 1.212 1.22 1.22 0 001.212-1.212c0-7.85-6.349-14.256-14.256-14.256-7.85 0-14.256 6.349-14.256 14.256a1.22 1.22 0 001.212 1.212c.635 0 1.212-.577 1.212-1.212.115-6.522 5.425-11.774 11.89-11.774z"></path></g><g fill="#3B3B3C"><path d="M104.007 45.366V16.103c0-1.443.75-2.655 1.674-2.655.923 0 1.674 1.212 1.674 2.655v29.263c0 1.443-.75 2.655-1.674 2.655-.924 0-1.674-1.154-1.674-2.655z"></path><path d="M105.623 48.425c-1.154 0-2.02-1.328-2.02-3.06V16.104c0-1.731.866-3.059 2.02-3.059s2.02 1.328 2.02 3.06v29.262c0 1.731-.866 3.059-2.02 3.059zm0-34.63c-.577 0-1.212.923-1.212 2.25v29.263c0 1.328.635 2.251 1.212 2.251s1.212-.923 1.212-2.25V16.102c.058-1.327-.577-2.309-1.212-2.309z"></path></g><g fill="#3B3B3C"><path d="M78.034 45.366V16.103c0-1.443.75-2.655 1.674-2.655.923 0 1.674 1.212 1.674 2.655v29.263c0 1.443-.75 2.655-1.674 2.655-.924 0-1.674-1.154-1.674-2.655z"></path><path d="M79.65 48.425c-1.154 0-2.02-1.328-2.02-3.06V16.104c0-1.731.866-3.059 2.02-3.059s2.02 1.328 2.02 3.06v29.262c0 1.731-.923 3.059-2.02 3.059zm0-34.63c-.577 0-1.212.923-1.212 2.25v29.263c0 1.328.635 2.251 1.212 2.251s1.212-.923 1.212-2.25V16.102c0-1.327-.635-2.309-1.212-2.309z"></path></g><g fill="#3B3B3C"><path d="M61.758 15.064c0-8.08 6.522-14.66 14.66-14.66s14.66 6.522 14.66 14.66a1.675 1.675 0 01-3.347 0c0-6.29-5.137-11.37-11.37-11.37-6.292 0-11.371 5.137-11.371 11.37 0 .924-.75 1.674-1.674 1.674-.808-.058-1.558-.75-1.558-1.674z"></path><path d="M89.404 17.084a2.045 2.045 0 01-2.02-2.02c0-6.06-4.963-10.966-10.966-10.966-6.06 0-10.966 4.964-10.966 10.966 0 1.097-.924 2.02-2.02 2.02a2.045 2.045 0 01-2.02-2.02c0-8.253 6.752-15.006 15.006-15.006 8.254 0 15.064 6.753 15.064 15.006-.058 1.155-.981 2.02-2.078 2.02zM76.36 3.29a11.75 11.75 0 0111.775 11.774 1.22 1.22 0 001.212 1.212 1.22 1.22 0 001.212-1.212c0-7.85-6.35-14.256-14.256-14.256-7.85 0-14.257 6.349-14.257 14.256a1.22 1.22 0 001.212 1.212c.635 0 1.212-.577 1.212-1.212.116-6.522 5.368-11.774 11.89-11.774z"></path></g><g fill="#3B3B3C"><path d="M87.73 29.725V15.757c0-1.27.75-2.309 1.674-2.309.924 0 1.674 1.04 1.674 2.309v14.025c0 1.27-.75 2.309-1.674 2.309-.923 0-1.673-1.097-1.673-2.366z"></path><path d="M89.404 32.495c-1.154 0-2.02-1.212-2.02-2.77V15.757c0-1.5.866-2.77 2.02-2.77 1.155 0 2.02 1.212 2.02 2.77v14.025c0 1.443-.923 2.713-2.02 2.713zm0-18.7c-.692 0-1.212.865-1.212 1.904v14.026c0 1.038.577 1.904 1.212 1.904.693 0 1.212-.866 1.212-1.904V15.757c-.057-1.039-.577-1.963-1.212-1.963z"></path></g><g fill="#3B3B3C"><path d="M61.758 29.032v-13.39c0-1.213.75-2.252 1.674-2.252.923 0 1.673.982 1.673 2.251v13.39c0 1.213-.75 2.252-1.673 2.252-.924 0-1.674-.981-1.674-2.251z"></path><path d="M63.374 31.687c-1.155 0-2.02-1.154-2.02-2.655v-13.39c0-1.443.865-2.656 2.02-2.656 1.154 0 2.02 1.155 2.02 2.655v13.39c.058 1.502-.866 2.656-2.02 2.656zm0-17.893c-.693 0-1.212.809-1.212 1.847v13.39c0 .982.577 1.848 1.212 1.848s1.212-.808 1.212-1.847v-13.39c0-.982-.52-1.848-1.212-1.848z"></path></g><path d="M42.191 66.26c13.68.346 27.416-.231 41.095-.462 13.737-.173 27.416-.404 41.153-.52 2.54 0 2.54-3.924 0-3.867-13.737.347-27.416.75-41.153 1.212-13.679.52-27.473.75-41.095 2.078-1.038.116-1.038 1.559 0 1.559zM45.828 82.363c13.102.346 26.146-.231 39.248-.462 13.101-.173 26.146-.404 39.305-.52 2.54 0 2.54-3.924 0-3.866-13.102.346-26.146.75-39.305 1.212-13.102.52-26.204.75-39.248 2.077-.924.058-.982 1.501 0 1.559z" fill="#3B3B3C"></path><path d="M46.232 67.356c-.231.52-.577 1.04-.693 1.616-.115.578-.173 1.212-.23 1.847a15.67 15.67 0 000 3.29c.115 1.212.346 2.309.576 3.463.058.173.289 1.386.347 1.386-.116-.058.923-.982.404-.52-.173.115-.173.115.057 0 .578-.115.982.115 1.27.577l-.692 2.598c1.443-1.097 2.308-2.367 3-4.04.578-1.444.751-3.002.982-4.56.231-1.847.346-3.694-.52-5.426-.75-1.674-2.654-3.001-4.501-2.828-1.097.115-2.136.866-2.078 2.078.058 1.154.923 2.078 2.078 2.078 3.52 0 7.041.057 10.504.057-.692-.52-1.327-.98-2.02-1.558.635 3.694.693 7.85.289 11.717l2.078-2.078c.288.058.346.058.115 0l.23.115c-.345-.288.29.347-.115-.115-.115-.116-.057-.116.116.115-.058-.057-.116-.115-.116-.173-.057-.115-.115-.115-.115-.23.115.23.115.288.058.115 0-.116-.116-.404-.116-.577-.115-.405 0 .346 0-.116 0-.346 0-.693.058-1.039.23-1.905.52-3.867-.693-5.598-.808-1.155-2.308-1.443-3.405-.462a6.752 6.752 0 00-1.847 3.001c-.404 1.328-.346 2.54.231 3.81.346.75 1.5 1.212 2.309.923a2.172 2.172 0 001.5-1.962v-.116c-.057.289-.057.116.058-.52v-.346c0-.057.116-.635 0-.173.058-.115.058-.346.116-.462.057-.115.173-.519 0-.115.115-.115.115-.289.23-.404.116-.115.231-.346.058-.115l.404-.404a60.614 60.614 0 01-3.405-.462c.115.115.346.75.23.346.058.116.116.231.116.346 0-.23-.058-.23 0-.115 0 .52 0 .981-.058 1.5-.115.866-.23 1.732-.115 2.598.289 2.424 1.616 4.444 4.156 4.733 1.212.115 2.02-1.04 2.077-2.078.462-4.329.289-8.6-.461-12.813-.116-.924-1.155-1.501-2.02-1.559-3.521 0-7.042-.057-10.505-.057v4.155h.346c-.52.058.116.058-.115-.057-.231-.058.115.057.173.115.173.115-.115-.173.115.115l.289.289c-.115-.173-.115-.115 0 .058.289.461 0-.231.115.115.058.116.116.289.116.462 0 .115.115.52.058.23 0 .116 0 .347.057.462 0 .347 0 .693-.057 1.04-.058.634-.116 1.211-.116 1.846-.058.289-.058.52-.115.75-.058.232.057-.23 0 .116 0 .116-.058.289-.058.346-.115.578-.23 1.155-.404 1.674-.058.116-.115.231-.115.347-.116.346.057-.058-.058.115-.116.23-.231.462-.346.635-.116.115-.174.288-.289.346.115-.173.058-.058-.058.058-.23.23-.404.462-.692.635-.578.462-.75 1.674-.347 2.308.578.75 1.212 1.213 2.194 1.213.808 0 1.673-.347 2.193-.924 1.327-1.443.75-3.174.288-4.848-.75-2.886-.75-5.83-1.212-8.773-.115-.75-1.5-.924-1.904-.116zM63.258 66.144c-1.731 3.81-2.135 7.792-1.673 11.89.115 1.212.923 2.309 2.308 2.309 18.932-.173 37.92.404 56.852 1.5 1.039.058 2.078-.808 2.366-1.847 1.328-4.848 1.443-10.1-.346-14.89-.346-.982-1.154-1.674-2.25-1.674-4.56-.174-9.12-.75-13.738-.924-4.732-.115-9.408-.23-14.14-.173-9.293.115-18.585.923-27.878 1.616-1.154.115-2.482.808-2.713 2.078-.577 3.117-.461 6.118.462 9.177.635 2.193 3.983 2.886 5.137.692 1.847-3.693 6.118-3.232 9.696-3.405 4.502-.115 9.004-.346 13.564-.462 9.004-.346 18.008-.634 27.012-.98l-2.886-2.887a20.575 20.575 0 01-.52 5.945c.924-.75 1.847-1.443 2.77-2.135-17.141-.231-34.341-.52-51.54-.75v6.002c16.102-1.674 32.263-2.77 48.424-3.001 3.81-.058 3.81-5.945 0-5.887-16.218.23-32.38 1.154-48.425 2.885-3.751.404-3.982 5.945 0 6.003 17.142.173 34.342.346 51.542.577 1.212 0 2.54-.923 2.77-2.135.578-2.482.866-4.964.693-7.504-.115-1.5-1.212-3.001-2.886-2.886-10.043.347-20.143.75-30.244 1.155-4.79.173-9.581.23-14.372.577-4.444.346-8.426 1.847-10.504 6.06 1.674.231 3.405.462 5.137.693-.577-2.02-.808-4.098-.462-6.176-.923.693-1.79 1.385-2.713 2.078 9.177-.693 18.297-1.27 27.474-1.79 4.444-.23 8.888-.403 13.333-.346 4.732.058 9.58-.057 14.256.635l-1.674-1.673c1.039 4.097 1.212 8.195.115 12.293.75-.577 1.616-1.212 2.367-1.847-18.932-1.212-37.863-1.5-56.852-1.096l2.309 2.308c-.52-3.751-.52-7.503-.577-11.254.173-1.27-1.616-1.963-2.194-.75z" fill="#3B3B3C"></path><path d="M8.6 81.959c-1.558-.924-3.175-1.385-4.848-1.963-.174 1.386-.347 2.77-.578 4.098 1.674.174 3.406.116 5.195.347 1.674.173 3.29.404 4.906.75.866.173 1.732-.058 2.309-.75.52-.635.692-1.674.173-2.424-1.905-2.713-3.867-5.426-5.772-8.08-1.212.923-2.309 1.846-3.52 2.712 2.077 1.79 4.27 3.578 6.406 5.368 1.212.98 3.348.75 3.81-.982.634-2.712-.174-5.598-2.31-7.387-.692-.578-1.615-.866-2.481-.462-.75.346-1.443 1.212-1.385 2.078.173 1.847.634 3.636 1.5 5.31.75 1.558 2.078 3.405 3.636 4.27 1.097.636 2.367.636 3.406-.115.808-.635 1.443-1.674 2.02-2.54 1.212-1.789 2.54-3.52 3.752-5.31-1.443-.346-2.77-.75-4.214-1.154.058.866-.75 1.559-1.212 2.251-.75 1.155-1.212 2.424-.981 3.81.404 2.424 4.213 4.502 5.83 1.904.577-.923.461-2.308-.578-2.886-.058-.057-.635-.288-.288-.115.461.173-.289-.115-.52-.23-.577-.116-.75-.116-.462-.059.116.058.116.058 0 0-.115-.173.116.116.174.116.057.115.23.577.173.577l.115-.346c.346-.52.635-.981.981-1.443.75-1.04 1.27-2.309 1.155-3.579-.173-2.308-2.886-3.001-4.214-1.154-.808 1.212-1.674 2.366-2.54 3.52-.346.578-.75 1.04-1.154 1.617-.23.346-.461.635-.692.981-.116.115-.116.23-.231.346-.289.404-.346.404-.116.116.347-.116.75-.173 1.155-.347.635.347.75.347.346.058l-.23-.23a6.918 6.918 0 01-.636-.693 21.27 21.27 0 01-.98-1.443 8.839 8.839 0 01-.982-3.175c-1.27.577-2.54 1.04-3.867 1.616.981.808 1.385 1.847 1.154 3.002 1.27-.347 2.54-.693 3.81-.981L9.408 73.59c-.866-.75-2.02-.924-2.944-.173-.75.635-1.212 1.962-.577 2.886 1.963 2.655 3.867 5.367 5.83 8.022.808-1.039 1.673-2.135 2.482-3.174-1.847-.347-3.81-.577-5.657-.75-1.847-.174-3.694-.347-5.54-.174-2.713.289-2.656 3.867 0 4.156 1.615.173 3.174.462 4.732.346 1.443-.404 2.078-2.078.866-2.77z" fill="#FFD8D8"></path><path d="M10.274 76.88l-.116.115c0 .058 0 0 .116-.115-.116.115 0 .057.173-.058h.577c-.462-.115-.923 0-1.27.346-.115.116.289-.173.116-.115-.058 0-.058.058-.116.058-.23.115.289-.116.116-.058-.058 0-.116.058-.173.058H9.58s.346-.058.231-.058h-.404c.115 0 .289.058.346.058-.23-.058-.404-.116-.635-.174.116.058.231.116.347.116-.116-.058-.173-.116-.289-.116.116.116.173.116.346.231l-.173-.173c.116.116.116.173.231.346-.058-.115-.115-.115-.115-.23.057.115.115.23.115.346-.058-.116-.058-.173-.058-.289 0 .116.058.289.058.404v-.23c0 .115-.058.288-.058.403 0-.115.058-.173.058-.288-.058.115-.115.23-.115.346.057-.115.115-.115.115-.23-.115.115-.173.23-.23.346.115-.116.115-.174.288-.289-.116.115-.231.173-.346.23.115-.115.23-.115.346-.23-.116.058-.231.115-.346.115.173-.057.346-.115.519-.115-.115 0-.289.058-.404.058h.404c-.115 0-.289-.058-.404-.058.115 0 .173.058.346.115-.115-.057-.288-.115-.346-.173.115.058.115.116.23.116-.115-.116-.23-.173-.345-.231.115.058.115.115.173.173-.116-.115-.173-.23-.289-.346.058.057.116.115.116.173.808-.635 1.673-1.328 2.54-1.963-1.098-.865-2.252-1.789-3.349-2.655l-1.212 2.944h.058c-.115 0-.346-.058-.462-.058.058 0 .116 0 .116.058-.116-.058-.289-.115-.404-.173.058 0 .058.058.115.058-.115-.116-.23-.174-.346-.289l.115.115c-.115-.115-.173-.23-.288-.346.057.058.057.116.115.116-.058-.116-.115-.289-.173-.404.058.057.058.115.058.173 0-.116-.058-.347-.058-.462v.289c0-.116.058-.347.058-.462 0 .115-.058.173-.058.23.058-.115.115-.288.173-.403-.058.057-.058.115-.115.173.115-.116.173-.231.288-.346-.057.057-.057.115-.115.115.115-.115.23-.173.346-.289-.115.058-.173.116-.23.116.115-.058.288-.116.403-.173-.115.057-.23.115-.346.115.116 0 .346-.058.462-.058-.289.058-.52 0-.75 0 .115 0 .346.058.461.058-.115 0-.173-.058-.346-.058-.52-.115-.924-.057-1.385.174-.52.288-.75.75-.866 1.327-.058.52.058.924.346 1.328.347.461.808.634 1.443.692.577.058 1.155.116 1.674-.115.866-.289 1.558-.866 1.847-1.732.52-1.443-.52-3.174-2.136-3.174-.75 0-1.443.577-1.673 1.212a2.484 2.484 0 000 .923c.115.462.404.75.75.981 1.154.809 2.309 1.674 3.463 2.54.289.173.693.23 1.039.173.346-.058.692-.173.923-.462.52-.577.578-1.27.289-1.962-1.039-2.02-4.271-1.674-5.195.23-.577 1.213-.23 2.54.808 3.29.866.578 1.905.52 2.829.059.404-.231.75-.578 1.038-.982.347-.52.347-1.154-.115-1.616.173.231.289.577.115.231-.057-.058-.057-.115-.115-.173-.058-.115-.115-.173-.23-.289-.059.058-.693.058-.924.347z" fill="#FFD8D8"></path><path d="M144.755 75.494a30.686 30.686 0 003.406-9.407c-.924-.231-1.79-.52-2.713-.75-.404 2.77-1.154 5.425-2.309 7.906.982.405 1.847.75 2.829 1.213 1.096-3.117 2.712-5.945 4.617-8.6h-3.001c1.212 1.616 1.27 4.098-.462 5.425.866.693 1.731 1.328 2.597 2.02.116-.346.116-.692.52-.808-.75-.577-1.501-1.154-2.31-1.731-.057.692-.519 1.212-1.211 1.27l1.847 1.846c-.116-4.155.75-8.08 2.77-11.774-1.154-.52-2.308-.981-3.405-1.443-.75 2.424-1.79 4.675-3.06 6.81 1.213.347 2.367.636 3.637.982-.346-5.137.808-10.043 2.078-14.949.635-2.54-3.232-3.636-3.925-1.097-.866 3.29-2.078 6.407-3.694 9.35 1.328.347 2.655.751 3.983 1.097a85.342 85.342 0 012.078-17.084h-4.33c.52 3.29-.346 6.522-2.135 9.235 1.443.346 2.828.75 4.271 1.154a30.725 30.725 0 012.367-13.102h-4.502c.346 2.136-.52 4.33-2.02 5.83 1.327.346 2.655.692 3.924 1.039-.692-2.078-.634-4.156.404-6.118-1.443-.404-3-.808-4.444-1.212-.52 7.214-1.674 14.371-3.52 21.355 1.616.23 3.174.462 4.848.635.115-2.136.577-4.214 1.5-6.176-1.558-.404-3.116-.808-4.617-1.212-.115 3.29-.75 6.407-1.847 9.466-.981 2.655 3.405 4.502 4.56 1.904 1.962-4.213-.173-9.58-4.79-10.793-4.676-1.27-9.178 3.002-9.178 7.619.058 4.733 4.964 7.734 9.293 6.753a5.902 5.902 0 002.597-1.154c1.674-1.213 1.5-2.425 1.27-4.33a46.164 46.164 0 01-.231-9.35c.173-2.828-4.444-3.463-5.022-.692-.461 2.309-.98 4.617-1.443 6.926l5.022.693c-.116-3.175-.058-6.35.115-9.582-1.616.404-3.174.866-4.79 1.27 0-.23-.058-.461-.058-.692 1.558.173 3.117.404 4.733.577-.346-1.443-.75-2.886-1.04-4.329-.807-3.174-5.77-1.847-4.963 1.385.346 1.443.75 2.886 1.097 4.329.577 2.136 3.636 2.482 4.733.577.865-1.443.808-3.001.057-4.502-1.27-2.308-4.675-1.154-4.79 1.27-.173 3.174-.173 6.349-.116 9.581.116 2.77 4.445 3.636 5.022.693.462-2.309.981-4.618 1.443-6.926l-5.022-.693c-.288 4.04-.057 7.965.578 11.948.23-.808.461-1.674.634-2.482-1.904 1.731-5.079-.635-3.52-3.002.75-1.039 1.962-1.616 3.059-.75.808.577 1.443 2.02.98 3.001 1.502.635 3.06 1.27 4.56 1.905 1.213-3.463 1.847-7.157 1.963-10.85.058-2.367-3.579-3.522-4.617-1.213-1.328 2.77-2.078 5.599-2.136 8.658-.115 2.77 4.156 3.347 4.848.635 1.905-7.446 3.06-15.065 3.579-22.683.115-2.31-3.406-3.233-4.445-1.212-1.616 3.059-1.962 6.522-.808 9.812.578 1.673 2.655 2.366 3.925 1.038 2.77-2.828 3.81-6.522 3.175-10.446-.173-.982-1.328-1.674-2.251-1.674-1.097 0-1.847.75-2.251 1.674-1.847 4.56-2.713 9.465-2.482 14.371.115 2.309 3.001 3.06 4.271 1.155 2.482-3.867 3.29-8.254 2.54-12.756-.347-2.193-3.868-2.078-4.33 0a92.828 92.828 0 00-1.962 18.239c0 2.078 3.002 3.001 3.983 1.096 1.674-3.347 3.059-6.81 3.982-10.504-1.327-.347-2.655-.75-3.924-1.097-1.213 5.252-2.425 10.62-1.963 16.046.116 1.847 2.54 2.712 3.636.98 1.443-2.423 2.54-5.02 3.406-7.791.577-2.02-2.424-3.348-3.406-1.443-2.308 4.213-3.405 8.889-3.174 13.621.058.924.75 1.847 1.847 1.847 2.713-.173 4.733-2.135 4.79-4.906.058-1.5-1.5-2.077-2.712-1.558-1.328.577-2.251 1.79-2.54 3.174-.404 1.847 1.616 2.77 3.001 1.732 3.002-2.309 3.579-6.926 1.27-9.985-.808-1.04-2.193-1.155-3.001 0-2.078 2.886-3.579 6.118-4.617 9.523-.578 1.963 2.308 2.655 3 .808 1.155-2.828 1.848-5.714 2.194-8.715.173-1.558-2.54-1.905-2.77-.346a49.4 49.4 0 01-2.367 9.465c-.692 1.27.866 1.905 1.385.981z" fill="#FE8"></path><path d="M136.906 107.932c9.004-21.01 10.85-44.385 6.291-66.722-.577-2.886-5.08-1.674-4.444 1.212 5.021 21.414 3.52 44.039-3.175 64.933-.288.75.982 1.327 1.328.577z" fill="#3B3B3B"></path><path d="M144.64 77.11c5.021 1.732 8.83-5.02 7.85-9.177-.174-.808-1.155-.923-1.732-.461-2.02 1.731-4.156 3.405-6.291 5.079.577.346 1.039.577 1.616.923 1.27-4.502 7.157-8.311 6.522-13.39-.173-1.5-1.327-3.001-3.001-2.367-2.367.866-4.271 4.849-5.195 6.927.693.173 1.385.346 2.078.577.577-4.33 5.252-6.753 5.599-11.14.115-1.616-.578-3.405-2.482-3.116-2.309.346-4.271 3.578-5.657 5.136.578.462 1.212.982 1.847 1.443 1.443-2.597 2.829-5.194 4.04-8.022.924-2.136 2.656-5.426 1.848-7.85-.578-1.732-2.425-2.54-4.04-1.558-.982.635-1.674 1.847-2.31 2.77-1.038 1.5-2.077 3.001-3.174 4.502.75.404 1.443.866 2.193 1.27 1.847-2.77 3.117-5.83 3.579-9.12.288-1.846.866-5.194-.981-6.522-2.078-1.5-3.81.982-4.733 2.598-1.443 2.655-2.078 5.771-1.5 8.715.346 1.5 2.77 1.212 2.712-.346-.115-1.847-.115-3.694.52-5.483.346-.924.75-1.847 1.327-2.598 0-.75.058-.75.115-.115v.981c-.057 3.81-1.212 7.388-3.232 10.505-.866 1.385 1.27 2.597 2.193 1.27 1.097-1.674 2.078-3.868 3.521-5.253.116-.577.52-.808.981-.635.693-.173.866.116.52.808-.173.866-.52 1.79-.808 2.598-1.212 3.52-3.06 6.752-4.733 10.1-.577 1.097.923 2.482 1.847 1.443.693-.808 1.443-1.674 2.078-2.54.346-.404 1.674-2.54 2.308-1.558.635.924-1.385 3.52-1.904 4.213-1.674 2.31-3.752 4.445-3.867 7.388-.058 1.328 1.789 1.443 2.193.289.404-1.154.923-2.193 1.5-3.232.231-.404.52-.75.751-1.212.289-.404.577-.808.923-1.212.462 0 .982-.058 1.443-.058.982 1.039-1.154 4.213-1.731 5.079-1.79 2.655-4.04 4.906-4.964 8.08-.346.982.924 1.443 1.616.924 2.078-1.616 4.098-3.232 6.176-4.79l-1.558-.866c0 1.847-.578 3.751-1.847 5.194-1.155 1.328-2.598 2.078-4.098 3.002-.462.23-.347.692-.058.808z" fill="#3B3B3B"></path><path d="M141.177 74.456c-1.328-.578-2.54-1.386-3.52-2.482-.693-.75-2.079-2.424-1.675-3.463-.23.346-.461.577-.692.923.346-.173 2.078.404 2.54.52 1.154.346 2.193.75 3.232 1.327.98.52 2.481-.346 2.077-1.558-.865-2.598-3.463-3.579-5.079-5.599-.462-.577-.808-1.212-1.154-1.905-.173-.461-.346-.865-.462-1.385-.058.289.116.404.346.462 1.732.635 3.463 1.847 5.137 2.713 1.674.865 3.06-1.501 1.443-2.54-2.424-1.616-5.021-3.347-6.637-5.83-.462-.692-.635-1.442-.981-2.077-.231-.52-.809-.981.057-.635 1.559.693 3.06 2.078 4.444 3.059 1.501 1.039 2.829-1.385 1.443-2.424-2.712-2.02-5.656-4.906-4.328-8.542-.75.346-1.443.577-2.194.923 1.212.577 2.424 1.154 3.637 1.674 1.731.808 3.232-1.616 1.558-2.655a7.95 7.95 0 01-3.001-3.175c-.347-.75-1.559-3.52-.75-4.097l-1.213.519c2.02-.173 2.77 3.232 2.77 4.675-.057 1.905 2.598 2.078 3.175.404.808-2.309.231-4.617-1.443-6.464-1.27-1.443-3.925-3.117-5.772-1.674-1.847 1.5-.98 4.964-.173 6.81a11.608 11.608 0 004.906 5.6c.52-.867.981-1.732 1.559-2.656-1.212-.577-2.482-1.096-3.637-1.674-.923-.404-1.847-.115-2.193.924-1.674 5.021 2.078 9.062 5.83 11.774.461-.808.98-1.616 1.443-2.424-1.79-1.212-4.156-3.578-6.465-3.578-2.135 0-2.655 1.962-2.308 3.751.98 4.733 5.252 7.792 9.003 10.274.52-.808.982-1.674 1.443-2.54-1.847-.98-10.273-6.522-9.87-.75.116 1.847 1.328 3.867 2.483 5.195 1.212 1.5 3.924 2.655 4.444 4.56l2.078-1.559c-1.847-1.039-9.986-5.08-9.581 0 .288 3.694 4.501 6.695 7.791 7.446 1.04.346 1.443-1.386.289-1.847z" fill="#3B3B3B"></path><path d="M137.945 111.51c2.828-.288 5.079-2.25 7.388-3.81 2.54-1.73 5.194-3.29 7.85-4.79a472.856 472.856 0 01-4.33-5.598c-3.405 3.232-6.753 6.464-9.754 10.043-3.001 3.636 2.078 8.946 5.252 5.252a802.569 802.569 0 019.466-10.332c2.655-2.828-.75-7.85-4.329-5.598-2.712 1.731-5.252 3.578-7.85 5.54-2.25 1.732-5.078 3.637-5.886 6.523-.29 1.212.75 2.886 2.193 2.77zM32.033 109.317c3.348-2.77 4.04-7.272 6.06-10.909-1.789-.75-3.578-1.5-5.425-2.308-.981 5.598-.346 10.677 1.962 15.814l4.502-4.502c-6.406-3.347-13.16-5.194-20.374-5.598v7.387c1.443.174 1.616-.519.404-1.962-1.443 3.925 5.137 6.753 6.81 2.886 2.656-6.06-2.885-9.004-8.195-8.138-4.271.692-3.001 7.157.981 7.272 5.887.173 11.66 1.443 17.027 3.925 3.001 1.385 6.06-1.443 4.502-4.502-1.905-3.694-2.424-7.619-1.905-11.717.462-3.636-5.887-3.867-5.887 0 .058 4.04-2.366 7.62-2.54 11.602.174.98 1.386 1.327 2.078.75z" fill="#C1D6D1"></path><path d="M22.279 87.211c2.54-2.193 4.271-4.733 5.483-7.85.924-2.366 2.193-6.464-.635-8.08-3.174-1.79-6.118 2.597-7.388 4.906a17.457 17.457 0 00-2.135 9.35c.115 2.424 3.405 2.309 3.636 0 .808-6.81-2.136-14.314-9.004-16.738-3.463-1.212-5.425 1.963-5.137 5.137.347 3.06 1.559 5.887 3.406 8.311 2.193 2.77 5.194 4.791 8.6 5.714 1.558.404 3.116-1.731 1.673-2.885-3.29-2.598-6.81-4.733-10.735-6.234-1.79-.693-3.636-1.212-5.541-1.674C2.77 76.822.635 76.764.173 78.9c-.808 3.405 3.752 6.349 6.234 7.619 1.847.98 3.867 1.616 5.887 2.02 2.135.461 4.733 1.096 6.81.23 1.213-.519 1.674-2.193.405-3-1.559-.924-3.117-.809-4.906-.982-1.617-.115-3.175-.346-4.733-.75-1.328-.347-2.598-.808-3.752-1.616-.577-.404-1.154-.866-1.674-1.443-.346-.347-.577-.982-.981-1.27-.058-.058-.058-.116-.058-.231-.23.23-.461.52-.692.75 0 .058 1.154.289 1.212.289.75.173 1.443.346 2.193.577a52.46 52.46 0 014.213 1.558c2.829 1.213 5.484 2.829 7.908 4.733.577-.98 1.096-1.904 1.674-2.886-2.77-.692-5.137-2.308-6.869-4.502-1.5-1.847-3.001-4.848-2.713-7.387 0-.116.116-.635.231-.75.289-.232-.23 0 .116-.058.577-.116 1.5.634 1.904.865a9.319 9.319 0 013.002 3.002c1.904 2.885 2.308 6.349 1.847 9.754h3.636c-.116-2.136.23-4.271 1.097-6.234.404-.98.98-1.904 1.673-2.77.347-.404.635-.75.982-1.154.115-.116.519-.347.577-.52.23-.115.173-.173-.116-.23-.173-.058-.346-.116-.346-.347.058-.058.115.923.115.923-.057.404-.115.808-.288 1.213-.289 1.096-.577 2.135-1.04 3.174-.923 2.078-2.077 4.213-3.404 6.06-.75 1.386.98 2.54 1.962 1.674z" fill="#3B3B3B"></path><path d="M18.874 85.826c1.731 2.886 3.636 5.598 5.252 8.6a65.675 65.675 0 014.156 9.177c.75 2.135 3.867.923 2.943-1.212-1.385-3.175-3.001-6.291-4.906-9.177a41.406 41.406 0 00-3.001-4.098c-1.154-1.443-2.309-2.713-3.694-3.867-.404-.404-1.097.057-.75.577z" fill="#3B3B3B"></path><path d="M22.568 106.085c-1.27-1.732-2.598-3.463-3.752-5.31-1.212-1.79-2.251-3.694-3.579-5.426-.577.75-1.154 1.443-1.673 2.194A23.316 23.316 0 0130.533 109.2c.75 1.386 3.232.809 3.116-.808-.577-6.406-1.212-14.429 4.156-19.104-.924-.346-1.847-.75-2.77-1.154.346 3.636.75 7.272 1.27 10.908.576 3.579.98 7.388 2.135 10.793.52 1.443 3.059 1.386 2.886-.404-.347-3.52-1.328-6.983-1.847-10.504-.577-3.579-.981-7.157-1.27-10.793-.115-1.443-1.674-2.078-2.77-1.155-6.06 5.195-5.945 14.083-5.253 21.413 1.04-.288 2.078-.577 3.117-.808-4.098-7.157-11.313-11.947-19.45-13.044-1.444-.173-1.732 1.674-1.04 2.54 1.328 1.674 2.886 3.232 4.33 4.848 1.442 1.616 2.77 3.29 4.097 5.021.635.809 1.847-.173 1.328-.865zM146.545 107.008c1.385-1.674 2.712-3.405 4.098-5.021 1.443-1.616 3-3.175 4.328-4.848.693-.866.404-2.77-1.038-2.54-8.08 1.097-15.353 5.83-19.451 12.929 1.039.288 2.078.577 3.116.808.75-7.273.809-16.219-5.252-21.413-1.096-.924-2.597-.29-2.77 1.154-.289 3.636-.693 7.215-1.27 10.793-.577 3.52-1.5 6.984-1.847 10.505-.173 1.731 2.366 1.847 2.886.404 1.212-3.406 1.616-7.273 2.135-10.794.578-3.636.982-7.214 1.27-10.908-.923.346-1.847.75-2.77 1.154 5.425 4.675 4.733 12.698 4.155 19.105-.115 1.674 2.31 2.25 3.117.808 3.52-6.291 9.812-10.563 16.97-11.66-.578-.75-1.155-1.442-1.675-2.192-1.27 1.673-2.366 3.636-3.578 5.425-1.212 1.847-2.482 3.578-3.752 5.31-.404.75.75 1.732 1.328.981z" fill="#3B3B3B"></path></g></svg>